<svg width="154" height="146" viewBox="0 0 154 146" fill="none" xmlns="http://www.w3.org/2000/svg">
<g id="Group">
<g id="Group_2">
<path id="Vector" d="M148.775 2.94429L84.5564 0.979502C84.5564 0.979502 47.7588 -1.54583 22.7517 18.9269C44.7827 17.2102 73.2767 18.2204 73.2767 18.2204L133.959 13.339L148.775 2.94429Z" fill="#F94A3D" stroke="#333333" stroke-width="0.5326" stroke-miterlimit="10" stroke-linecap="round" stroke-linejoin="round"/>
<path id="Vector_2" d="M71.8273 144.742V13.8659C98.9479 7.92773 125.111 4.03901 149.923 3.04932C152.907 45.923 153.113 87.5734 152.693 127.722L71.8273 144.742Z" fill="#F94A3D" stroke="#333333" stroke-width="0.5326" stroke-miterlimit="10"/>
<path id="Vector_3" opacity="0.2" d="M76.5359 13.2136C75.4164 45.9772 85.1723 83.7886 116.456 97.3932C127.718 102.648 139.799 106.668 152.251 107.896L152.693 127.722L71.8273 144.742V13.8661L76.5359 13.2136Z" fill="#F94A3D"/>
<path id="Vector_4" d="M1.11622 129.966C1.11622 129.966 -7.32457 31.5449 29.6117 14.3931C43.8588 12.545 71.8259 13.8661 71.8259 13.8661V144.742L1.11622 129.966Z" fill="#F94A3D" stroke="#333333" stroke-width="0.5326" stroke-miterlimit="10"/>
<g id="Group_3">
<g id="Group_4">
<g id="Group_5">
<path id="Vector_5" d="M13.076 48.6819C10.0883 58.5555 8.9994 67.9036 8.69288 74.6577C8.56736 76.3481 8.60385 77.8808 8.57612 79.2267C8.53963 80.574 8.57174 81.733 8.61407 82.6804C8.67245 84.578 8.70456 85.6261 8.70456 85.6261C8.70456 85.6261 8.61845 84.5795 8.46227 82.6877C8.3747 81.7418 8.29004 80.5813 8.26961 79.231C8.24041 77.8823 8.14262 76.3437 8.2083 74.6431C8.27253 67.8554 9.12638 58.3861 12.1477 48.4001C13.6788 43.4239 15.55 38.8141 17.5935 34.7882C18.1145 33.7882 18.6735 32.838 19.1902 31.9023C19.4515 31.4366 19.7099 30.9768 19.9638 30.5258C20.247 30.0908 20.5258 29.6631 20.7987 29.2427C21.349 28.4033 21.8803 27.5932 22.3897 26.8137C22.9326 26.0575 23.4916 25.3583 24.0054 24.6766C24.5338 24.0081 24.9979 23.3381 25.5103 22.7659C26.024 22.1951 26.5101 21.6564 26.964 21.1528C27.4194 20.6521 27.8427 20.1865 28.2324 19.7573C28.6557 19.3618 29.0439 18.9997 29.3913 18.6742C30.794 17.3838 31.588 16.6978 31.6318 16.7474C31.7894 16.908 28.5623 19.6493 24.5542 25.0897C24.0638 25.7758 23.5281 26.4794 23.0071 27.2385C22.5181 28.0179 22.0087 28.8296 21.4803 29.6704C21.2161 30.0908 20.949 30.517 20.6761 30.9505C20.4323 31.4016 20.1842 31.8585 19.9317 32.3241C19.434 33.2569 18.8939 34.1999 18.3904 35.194C16.4156 39.1951 14.5911 43.7597 13.076 48.6819Z" fill="#333333"/>
</g>
</g>
</g>
<g id="Group_6">
<g id="Group_7">
<g id="Group_8">
<path id="Vector_6" d="M106.037 73.7675C109.597 76.7454 113.148 79.3846 116.463 81.6647C119.803 83.9083 122.892 85.8132 125.561 87.2861C126.874 88.0612 128.112 88.6699 129.182 89.2392C130.249 89.8158 131.187 90.2727 131.959 90.6362C133.498 91.3806 134.347 91.7908 134.347 91.7908C134.347 91.7908 133.474 91.4288 131.897 90.7734C131.104 90.4508 130.141 90.0421 129.046 89.5151C127.948 88.9954 126.679 88.4378 125.331 87.7138C122.595 86.3417 119.425 84.5316 116.011 82.3478C112.621 80.1291 109.002 77.5147 105.411 74.5105C101.841 71.4831 98.64 68.3724 95.8609 65.4223C93.1125 62.4415 90.7699 59.6388 88.9381 57.1836C87.9879 55.9822 87.2173 54.8275 86.5167 53.8349C85.8088 52.8467 85.2424 51.965 84.7944 51.2351C83.8865 49.7827 83.4121 48.9653 83.469 48.9288C83.526 48.8923 84.1069 49.6411 85.1067 51.022C85.6 51.7169 86.2101 52.5635 86.956 53.5167C87.696 54.4743 88.5002 55.5939 89.4796 56.7602C91.3698 59.1469 93.7504 61.8839 96.5119 64.8077C99.3056 67.7009 102.498 70.7649 106.037 73.7675Z" fill="#333333"/>
</g>
</g>
</g>
</g>
<g id="Group_9">
<g id="Group_10">
<g id="Group_11">
<path id="Vector_7" d="M114.936 64.6136C118.519 67.444 121.412 69.8292 121.412 69.8292C121.412 69.8292 117.975 68.2512 114.335 65.377C110.692 62.5174 108.164 59.7235 108.346 59.5425C108.542 59.3425 111.341 61.7904 114.936 64.6136Z" fill="#333333"/>
</g>
</g>
</g>
</g>
</svg>
